<svg width="35" height="23" viewBox="0 0 35 23" fill="none" xmlns="http://www.w3.org/2000/svg">
<path d="M2 9.77351C9.63347 9.51661 17.216 9.61204 24.8412 9.96836C27.1313 10.0754 29.5198 10.5529 31.791 10.5529C32.5235 10.5529 33.6191 11.0936 32.9601 10.3148C31.7066 8.83328 30.568 6.91286 29.063 5.68158C28.1181 4.90841 25.8155 3.31787 25.8155 1.89275C25.8155 1.62042 26.0821 2.36993 26.2485 2.58556C26.8208 3.32743 27.5268 3.96658 28.1104 4.70731C29.0982 5.96097 30.3292 6.97667 31.2281 8.30128C32.3097 9.89523 33.0416 10.0854 32.0941 11.722C30.7555 14.0342 28.6449 15.1354 26.7681 16.9615C26.214 17.5006 25.6883 18.1965 24.9928 18.5636C24.7177 18.7088 24.119 18.6146 23.9102 18.8234C23.3947 19.3389 23.8316 20.1604 23.0442 20.6853" stroke="currentColor" stroke-width="3" stroke-linecap="round" stroke-linejoin="round"/>
</svg>
