<svg width="23" height="35" viewBox="0 0 23 35" fill="none" xmlns="http://www.w3.org/2000/svg">
<path d="M13.0673 1.67822C13.3241 9.31169 13.2287 16.8942 12.8724 24.5194C12.7654 26.8096 12.2878 29.198 12.2878 31.4692C12.2878 32.2017 11.7471 33.2974 12.526 32.6383C14.0075 31.3848 15.9279 30.2462 17.1592 28.7413C17.9323 27.7963 19.5229 25.4937 20.948 25.4937C21.2203 25.4937 20.4708 25.7604 20.2552 25.9267C19.5133 26.499 18.8742 27.205 18.1335 27.7887C16.8798 28.7764 15.8641 30.0075 14.5395 30.9063C12.9455 31.9879 12.7553 32.7198 11.1187 31.7723C8.80652 30.4337 7.70539 28.3231 5.8793 26.4463C5.34017 25.8922 4.64427 25.3665 4.27717 24.671C4.13197 24.3959 4.22613 23.7972 4.01737 23.5885C3.50183 23.0729 2.68035 23.5098 2.15543 22.7224" stroke="currentColor" stroke-width="3" stroke-linecap="round" stroke-linejoin="round"/>
</svg>
