<?xml version="1.0" encoding="utf-8"?><svg viewBox="0 0 35 23" xmlns="http://www.w3.org/2000/svg" xmlns:xlink="http://www.w3.org/1999/xlink"><style>:root>svg{display:none}:root>svg:target{display:block}</style><svg fill="none" viewBox="0 0 35 23" id="arr-right" xmlns="http://www.w3.org/2000/svg"><path d="M2 9.774c7.633-.257 15.216-.162 22.841.194 2.29.107 4.679.585 6.95.585.732 0 1.828.54 1.17-.238-1.254-1.482-2.393-3.402-3.898-4.633-.945-.774-3.247-2.364-3.247-3.79 0-.272.266.478.433.694.572.741 1.278 1.38 1.861 2.121.988 1.254 2.22 2.27 3.118 3.594 1.082 1.594 1.814 1.784.866 3.421-1.338 2.312-3.45 3.413-5.326 5.24-.554.539-1.08 1.235-1.775 1.602-.275.145-.874.05-1.083.26-.515.515-.078 1.336-.866 1.861" stroke="currentColor" stroke-width="3" stroke-linecap="round" stroke-linejoin="round"/></svg></svg>